<svg width="219" height="66" viewBox="0 0 219 66" fill="none" xmlns="http://www.w3.org/2000/svg">
<rect x="0.810366" y="1.4101" width="217.08" height="63.18" rx="10.53" fill="black"/>
<rect x="0.810366" y="1.4101" width="217.08" height="63.18" rx="10.53" stroke="#A6A6A6" stroke-width="1.62"/>
<path d="M132.072 31.7057V35.4171H129.746V37.8511H132.072V46.1211C132.072 48.9451 133.35 50.0746 136.564 50.0746C137.128 50.0746 137.666 50.0074 138.137 49.9267V47.5197C137.734 47.56 137.478 47.5869 137.034 47.5869C135.595 47.5869 134.963 46.9145 134.963 45.3815V37.8511H138.137V35.4171H134.963V31.7057H132.072Z" fill="white"/>
<path d="M146.324 50.2764C150.6 50.2764 153.223 47.4121 153.223 42.6652C153.223 37.9452 150.587 35.0675 146.324 35.0675C142.048 35.0675 139.412 37.9452 139.412 42.6652C139.412 47.4121 142.035 50.2764 146.324 50.2764ZM146.324 47.7079C143.81 47.7079 142.398 45.8656 142.398 42.6652C142.398 39.4916 143.81 37.6359 146.324 37.6359C148.825 37.6359 150.251 39.4916 150.251 42.6652C150.251 45.8522 148.825 47.7079 146.324 47.7079Z" fill="white"/>
<path d="M155.466 49.994H158.357V41.3474C158.357 39.2899 159.904 37.9049 162.096 37.9049C162.607 37.9049 163.467 37.999 163.709 38.0797V35.2289C163.4 35.1482 162.849 35.1078 162.418 35.1078C160.509 35.1078 158.882 36.1567 158.465 37.5956H158.25V35.3499H155.466V49.994Z" fill="white"/>
<path d="M170.888 37.5283C173.026 37.5283 174.425 39.021 174.492 41.3205H167.096C167.257 39.0344 168.75 37.5283 170.888 37.5283ZM174.478 46.0405C173.941 47.1835 172.744 47.8155 170.996 47.8155C168.683 47.8155 167.19 46.1884 167.096 43.62V43.4586H177.437V42.45C177.437 37.8511 174.976 35.0675 170.901 35.0675C166.773 35.0675 164.151 38.0393 164.151 42.719C164.151 47.3986 166.719 50.2764 170.915 50.2764C174.263 50.2764 176.603 48.6627 177.262 46.0405H174.478Z" fill="white"/>
<path d="M113.112 44.5861C113.335 48.1821 116.332 50.4818 120.792 50.4818C125.559 50.4818 128.541 48.0706 128.541 44.2238C128.541 41.1993 126.841 39.5267 122.716 38.565L120.499 38.0215C117.879 37.4082 116.82 36.5859 116.82 35.1503C116.82 33.3384 118.465 32.1537 120.931 32.1537C123.273 32.1537 124.89 33.3105 125.182 35.1642H128.221C128.04 31.7774 125.057 29.394 120.973 29.394C116.583 29.394 113.656 31.7774 113.656 35.3594C113.656 38.3142 115.315 40.0703 118.952 40.9205L121.545 41.5477C124.207 42.1749 125.378 43.0948 125.378 44.6279C125.378 46.412 123.538 47.7082 121.029 47.7082C118.339 47.7082 116.471 46.4956 116.207 44.5861H113.112Z" fill="white"/>
<path d="M83.163 35.1078C81.1728 35.1078 79.4515 36.1029 78.564 37.7704H78.3488V35.3499H75.5652V54.8619H78.4564V47.7752H78.685C79.4515 49.3216 81.1055 50.236 83.1898 50.236C86.8878 50.236 89.2411 47.318 89.2411 42.6652C89.2411 38.0124 86.8878 35.1078 83.163 35.1078ZM82.3427 47.6407C79.9222 47.6407 78.4026 45.7312 78.4026 42.6786C78.4026 39.6127 79.9222 37.7032 82.3561 37.7032C84.8035 37.7032 86.2693 39.5723 86.2693 42.6652C86.2693 45.7715 84.8035 47.6407 82.3427 47.6407Z" fill="white"/>
<path d="M99.3578 35.1078C97.3676 35.1078 95.6463 36.1029 94.7588 37.7704H94.5436V35.3499H91.7601V54.8619H94.6512V47.7752H94.8798C95.6463 49.3216 97.3003 50.236 99.3847 50.236C103.083 50.236 105.436 47.318 105.436 42.6652C105.436 38.0124 103.083 35.1078 99.3578 35.1078ZM98.5375 47.6407C96.117 47.6407 94.5974 45.7312 94.5974 42.6786C94.5974 39.6127 96.117 37.7032 98.5509 37.7032C100.998 37.7032 102.464 39.5723 102.464 42.6652C102.464 45.7715 100.998 47.6407 98.5375 47.6407Z" fill="white"/>
<path d="M70.378 49.994H73.6952L66.4336 29.8819H63.0746L55.8131 49.994H59.0188L60.8725 44.6558H68.5382L70.378 49.994ZM64.5939 33.5335H64.8308L67.7438 42.0355H61.6669L64.5939 33.5335Z" fill="white"/>
<path d="M57.7563 14.7113V24.4135H61.2594C64.1505 24.4135 65.8247 22.6317 65.8247 19.5321C65.8247 16.4796 64.1371 14.7113 61.2594 14.7113H57.7563ZM59.2624 16.0829H61.0913C63.1016 16.0829 64.2917 17.3604 64.2917 19.5523C64.2917 21.7778 63.1218 23.0418 61.0913 23.0418H59.2624V16.0829Z" fill="white"/>
<path d="M70.9521 24.5547C73.0903 24.5547 74.4014 23.1225 74.4014 20.7491C74.4014 18.3891 73.0835 16.9502 70.9521 16.9502C68.814 16.9502 67.4962 18.3891 67.4962 20.7491C67.4962 23.1225 68.8073 24.5547 70.9521 24.5547ZM70.9521 23.2704C69.6948 23.2704 68.9888 22.3493 68.9888 20.7491C68.9888 19.1623 69.6948 18.2344 70.9521 18.2344C72.2027 18.2344 72.9155 19.1623 72.9155 20.7491C72.9155 22.3426 72.2027 23.2704 70.9521 23.2704Z" fill="white"/>
<path d="M85.5666 17.0914H84.1211L82.8167 22.6788H82.7024L81.1963 17.0914H79.8112L78.3051 22.6788H78.1975L76.8864 17.0914H75.4207L77.4378 24.4135H78.9237L80.4298 19.0211H80.5441L82.0569 24.4135H83.5563L85.5666 17.0914Z" fill="white"/>
<path d="M87.2314 24.4135H88.677V20.1305C88.677 18.9875 89.3561 18.2748 90.4251 18.2748C91.4942 18.2748 92.0052 18.8597 92.0052 20.0364V24.4135H93.4508V19.6733C93.4508 17.9319 92.5498 16.9502 90.916 16.9502C89.8133 16.9502 89.0871 17.4411 88.7308 18.2546H88.6232V17.0914H87.2314V24.4135Z" fill="white"/>
<path d="M95.7274 24.4135H97.173V14.2339H95.7274V24.4135Z" fill="white"/>
<path d="M102.61 24.5547C104.748 24.5547 106.059 23.1225 106.059 20.7491C106.059 18.3891 104.741 16.9502 102.61 16.9502C100.472 16.9502 99.1538 18.3891 99.1538 20.7491C99.1538 23.1225 100.465 24.5547 102.61 24.5547ZM102.61 23.2704C101.352 23.2704 100.646 22.3493 100.646 20.7491C100.646 19.1623 101.352 18.2344 102.61 18.2344C103.86 18.2344 104.573 19.1623 104.573 20.7491C104.573 22.3426 103.86 23.2704 102.61 23.2704Z" fill="white"/>
<path d="M110.366 23.3175C109.579 23.3175 109.008 22.9343 109.008 22.2754C109.008 21.6299 109.465 21.287 110.474 21.2197L112.262 21.1054V21.7173C112.262 22.625 111.455 23.3175 110.366 23.3175ZM109.996 24.5345C110.958 24.5345 111.758 24.1176 112.195 23.3848H112.309V24.4135H113.701V19.4111C113.701 17.8646 112.666 16.9502 110.83 16.9502C109.169 16.9502 107.986 17.7571 107.838 19.0144H109.237C109.398 18.4967 109.956 18.2008 110.763 18.2008C111.751 18.2008 112.262 18.6379 112.262 19.4111V20.0431L110.279 20.1574C108.537 20.265 107.556 21.0248 107.556 22.3426C107.556 23.6806 108.584 24.5345 109.996 24.5345Z" fill="white"/>
<path d="M118.607 24.5345C119.615 24.5345 120.469 24.0571 120.906 23.257H121.02V24.4135H122.405V14.2339H120.96V18.2546H120.852C120.456 17.4478 119.608 16.9704 118.607 16.9704C116.758 16.9704 115.567 18.4362 115.567 20.7491C115.567 23.0687 116.744 24.5345 118.607 24.5345ZM119.017 18.2681C120.227 18.2681 120.987 19.2295 120.987 20.7558C120.987 22.2888 120.234 23.2368 119.017 23.2368C117.793 23.2368 117.06 22.3022 117.06 20.7491C117.06 19.2094 117.8 18.2681 119.017 18.2681Z" fill="white"/>
<path d="M131.78 24.5547C133.918 24.5547 135.229 23.1225 135.229 20.7491C135.229 18.3891 133.911 16.9502 131.78 16.9502C129.641 16.9502 128.324 18.3891 128.324 20.7491C128.324 23.1225 129.635 24.5547 131.78 24.5547ZM131.78 23.2704C130.522 23.2704 129.816 22.3493 129.816 20.7491C129.816 19.1623 130.522 18.2344 131.78 18.2344C133.03 18.2344 133.743 19.1623 133.743 20.7491C133.743 22.3426 133.03 23.2704 131.78 23.2704Z" fill="white"/>
<path d="M137.142 24.4135H138.588V20.1305C138.588 18.9875 139.267 18.2748 140.336 18.2748C141.405 18.2748 141.916 18.8597 141.916 20.0364V24.4135H143.362V19.6733C143.362 17.9319 142.461 16.9502 140.827 16.9502C139.724 16.9502 138.998 17.4411 138.642 18.2546H138.534V17.0914H137.142V24.4135Z" fill="white"/>
<path d="M150.019 15.2693V17.125H148.856V18.342H150.019V22.4771C150.019 23.889 150.658 24.4538 152.265 24.4538C152.547 24.4538 152.816 24.4202 153.052 24.3798V23.1763C152.85 23.1965 152.722 23.2099 152.5 23.2099C151.781 23.2099 151.465 22.8738 151.465 22.1073V18.342H153.052V17.125H151.465V15.2693H150.019Z" fill="white"/>
<path d="M154.992 24.4135H156.438V20.1372C156.438 19.0278 157.097 18.2815 158.28 18.2815C159.302 18.2815 159.847 18.8732 159.847 20.0431V24.4135H161.292V19.6868C161.292 17.9453 160.331 16.957 158.771 16.957C157.668 16.957 156.895 17.4478 156.539 18.2681H156.424V14.2339H154.992V24.4135Z" fill="white"/>
<path d="M166.507 18.1807C167.576 18.1807 168.275 18.927 168.309 20.0767H164.611C164.692 18.9337 165.438 18.1807 166.507 18.1807ZM168.302 22.4367C168.033 23.0082 167.435 23.3242 166.561 23.3242C165.404 23.3242 164.658 22.5107 164.611 21.2265V21.1458H169.781V20.6415C169.781 18.342 168.551 16.9502 166.514 16.9502C164.45 16.9502 163.139 18.4362 163.139 20.776C163.139 23.1158 164.423 24.5547 166.521 24.5547C168.195 24.5547 169.365 23.7478 169.694 22.4367H168.302Z" fill="white"/>
<path d="M40.1267 33.4877C40.1618 30.7645 41.6242 28.1877 43.9443 26.7614C42.4807 24.6711 40.0292 23.3457 37.4786 23.2659C34.7583 22.9804 32.121 24.8938 30.7347 24.8938C29.3216 24.8938 27.1873 23.2943 24.889 23.3416C21.8932 23.4384 19.1003 25.1416 17.6428 27.7607C14.5097 33.1852 16.8467 41.1573 19.848 45.542C21.3495 47.689 23.1045 50.0874 25.4007 50.0023C27.6478 49.9091 28.487 48.5695 31.1994 48.5695C33.8865 48.5695 34.6739 50.0023 37.0168 49.9482C39.428 49.9091 40.9471 47.7916 42.396 45.6242C43.4749 44.0944 44.3051 42.4035 44.8558 40.6144C42.0223 39.4159 40.13 36.5643 40.1267 33.4877Z" fill="white"/>
<path d="M35.7014 20.3823C37.0161 18.8041 37.6637 16.7756 37.5069 14.7275C35.4984 14.9385 33.6431 15.8984 32.3106 17.4161C31.0077 18.8989 30.3296 20.8918 30.4578 22.8616C32.4671 22.8822 34.4423 21.9483 35.7014 20.3823Z" fill="white"/>
</svg>
