<svg width="1280" height="358" viewBox="0 0 1280 358" fill="none" xmlns="http://www.w3.org/2000/svg">
<g clip-path="url(#clip0_290_5914)">
<mask id="mask0_290_5914" style="mask-type:alpha" maskUnits="userSpaceOnUse" x="2" y="-11" width="1278" height="767">
<rect width="921.6" height="766.08" transform="translate(180 -11)" fill="url(#paint0_radial_290_5914)"/>
</mask>
<g mask="url(#mask0_290_5914)">
<g clip-path="url(#clip1_290_5914)">
<mask id="path-3-inside-1_290_5914" fill="white">
<path d="M21.0005 -10.9999H82.4405V50.4401H21.0005V-10.9999Z"/>
</mask>
<path d="M82.4405 50.4401V51.0801H83.0805V50.4401H82.4405ZM82.4405 -10.9999H81.8005V50.4401H82.4405H83.0805V-10.9999H82.4405ZM82.4405 50.4401V49.8001H21.0005V50.4401V51.0801H82.4405V50.4401Z" fill="#314F95" fill-opacity="0.2" mask="url(#path-3-inside-1_290_5914)"/>
<mask id="path-5-inside-2_290_5914" fill="white">
<path d="M82.4404 -10.9999H143.88V50.4401H82.4404V-10.9999Z"/>
</mask>
<path d="M143.88 50.4401V51.0801H144.52V50.4401H143.88ZM143.88 -10.9999H143.24V50.4401H143.88H144.52V-10.9999H143.88ZM143.88 50.4401V49.8001H82.4404V50.4401V51.0801H143.88V50.4401Z" fill="#314F95" fill-opacity="0.2" mask="url(#path-5-inside-2_290_5914)"/>
<mask id="path-7-inside-3_290_5914" fill="white">
<path d="M143.881 -10.9998H205.321V50.4402H143.881V-10.9998Z"/>
</mask>
<path d="M205.321 50.4402V51.0802H205.961V50.4402H205.321ZM205.321 -10.9998H204.681V50.4402H205.321H205.961V-10.9998H205.321ZM205.321 50.4402V49.8002H143.881V50.4402V51.0802H205.321V50.4402Z" fill="#314F95" fill-opacity="0.2" mask="url(#path-7-inside-3_290_5914)"/>
<mask id="path-9-inside-4_290_5914" fill="white">
<path d="M205.321 -10.9999H266.761V50.4401H205.321V-10.9999Z"/>
</mask>
<path d="M266.761 50.4401V51.0801H267.401V50.4401H266.761ZM266.761 -10.9999H266.121V50.4401H266.761H267.401V-10.9999H266.761ZM266.761 50.4401V49.8001H205.321V50.4401V51.0801H266.761V50.4401Z" fill="#314F95" fill-opacity="0.2" mask="url(#path-9-inside-4_290_5914)"/>
<mask id="path-11-inside-5_290_5914" fill="white">
<path d="M266.76 -10.9999H328.201V50.4401H266.76V-10.9999Z"/>
</mask>
<path d="M328.201 50.4401V51.0801H328.84V50.4401H328.201ZM328.201 -10.9999H327.561V50.4401H328.201H328.84V-10.9999H328.201ZM328.201 50.4401V49.8001H266.76V50.4401V51.0801H328.201V50.4401Z" fill="#314F95" fill-opacity="0.2" mask="url(#path-11-inside-5_290_5914)"/>
<mask id="path-13-inside-6_290_5914" fill="white">
<path d="M328.2 -10.9999H389.64V50.4401H328.2V-10.9999Z"/>
</mask>
<path d="M389.64 50.4401V51.0801H390.28V50.4401H389.64ZM389.64 -10.9999H389V50.4401H389.64H390.28V-10.9999H389.64ZM389.64 50.4401V49.8001H328.2V50.4401V51.0801H389.64V50.4401Z" fill="#314F95" fill-opacity="0.2" mask="url(#path-13-inside-6_290_5914)"/>
<mask id="path-15-inside-7_290_5914" fill="white">
<path d="M389.641 -10.9999H451.081V50.4401H389.641V-10.9999Z"/>
</mask>
<path d="M451.081 50.4401V51.0801H451.721V50.4401H451.081ZM451.081 -10.9999H450.441V50.4401H451.081H451.721V-10.9999H451.081ZM451.081 50.4401V49.8001H389.641V50.4401V51.0801H451.081V50.4401Z" fill="#314F95" fill-opacity="0.2" mask="url(#path-15-inside-7_290_5914)"/>
<mask id="path-17-inside-8_290_5914" fill="white">
<path d="M451.081 -10.9998H512.521V50.4402H451.081V-10.9998Z"/>
</mask>
<path d="M512.521 50.4402V51.0802H513.161V50.4402H512.521ZM512.521 -10.9998H511.881V50.4402H512.521H513.161V-10.9998H512.521ZM512.521 50.4402V49.8002H451.081V50.4402V51.0802H512.521V50.4402Z" fill="#314F95" fill-opacity="0.2" mask="url(#path-17-inside-8_290_5914)"/>
<mask id="path-19-inside-9_290_5914" fill="white">
<path d="M512.521 -10.9999H573.961V50.4401H512.521V-10.9999Z"/>
</mask>
<path d="M573.961 50.4401V51.0801H574.601V50.4401H573.961ZM573.961 -10.9999H573.321V50.4401H573.961H574.601V-10.9999H573.961ZM573.961 50.4401V49.8001H512.521V50.4401V51.0801H573.961V50.4401Z" fill="#314F95" fill-opacity="0.2" mask="url(#path-19-inside-9_290_5914)"/>
<mask id="path-21-inside-10_290_5914" fill="white">
<path d="M573.96 -10.9999H635.4V50.4401H573.96V-10.9999Z"/>
</mask>
<path d="M635.4 50.4401V51.0801H636.04V50.4401H635.4ZM635.4 -10.9999H634.76V50.4401H635.4H636.04V-10.9999H635.4ZM635.4 50.4401V49.8001H573.96V50.4401V51.0801H635.4V50.4401Z" fill="#314F95" fill-opacity="0.2" mask="url(#path-21-inside-10_290_5914)"/>
<mask id="path-23-inside-11_290_5914" fill="white">
<path d="M635.4 -10.9999H696.84V50.4401H635.4V-10.9999Z"/>
</mask>
<path d="M696.84 50.4401V51.0801H697.48V50.4401H696.84ZM696.84 -10.9999H696.2V50.4401H696.84H697.48V-10.9999H696.84ZM696.84 50.4401V49.8001H635.4V50.4401V51.0801H696.84V50.4401Z" fill="#314F95" fill-opacity="0.2" mask="url(#path-23-inside-11_290_5914)"/>
<mask id="path-25-inside-12_290_5914" fill="white">
<path d="M696.841 -10.9999H758.281V50.4401H696.841V-10.9999Z"/>
</mask>
<path d="M758.281 50.4401V51.0801H758.921V50.4401H758.281ZM758.281 -10.9999H757.641V50.4401H758.281H758.921V-10.9999H758.281ZM758.281 50.4401V49.8001H696.841V50.4401V51.0801H758.281V50.4401Z" fill="#314F95" fill-opacity="0.2" mask="url(#path-25-inside-12_290_5914)"/>
<mask id="path-27-inside-13_290_5914" fill="white">
<path d="M758.281 -10.9998H819.721V50.4402H758.281V-10.9998Z"/>
</mask>
<path d="M819.721 50.4402V51.0802H820.361V50.4402H819.721ZM819.721 -10.9998H819.081V50.4402H819.721H820.361V-10.9998H819.721ZM819.721 50.4402V49.8002H758.281V50.4402V51.0802H819.721V50.4402Z" fill="#314F95" fill-opacity="0.2" mask="url(#path-27-inside-13_290_5914)"/>
<mask id="path-29-inside-14_290_5914" fill="white">
<path d="M819.72 -10.9999H881.16V50.4401H819.72V-10.9999Z"/>
</mask>
<path d="M881.16 50.4401V51.0801H881.8V50.4401H881.16ZM881.16 -10.9999H880.52V50.4401H881.16H881.8V-10.9999H881.16ZM881.16 50.4401V49.8001H819.72V50.4401V51.0801H881.16V50.4401Z" fill="#314F95" fill-opacity="0.2" mask="url(#path-29-inside-14_290_5914)"/>
<mask id="path-31-inside-15_290_5914" fill="white">
<path d="M881.161 -10.9999H942.601V50.4401H881.161V-10.9999Z"/>
</mask>
<path d="M942.601 50.4401V51.0801H943.241V50.4401H942.601ZM942.601 -10.9999H941.961V50.4401H942.601H943.241V-10.9999H942.601ZM942.601 50.4401V49.8001H881.161V50.4401V51.0801H942.601V50.4401Z" fill="#314F95" fill-opacity="0.2" mask="url(#path-31-inside-15_290_5914)"/>
<mask id="path-33-inside-16_290_5914" fill="white">
<path d="M942.601 -10.9999H1004.04V50.4401H942.601V-10.9999Z"/>
</mask>
<path d="M1004.04 50.4401V51.0801H1004.68V50.4401H1004.04ZM1004.04 -10.9999H1003.4V50.4401H1004.04H1004.68V-10.9999H1004.04ZM1004.04 50.4401V49.8001H942.601V50.4401V51.0801H1004.04V50.4401Z" fill="#314F95" fill-opacity="0.2" mask="url(#path-33-inside-16_290_5914)"/>
<mask id="path-35-inside-17_290_5914" fill="white">
<path d="M1004.04 -10.9999H1065.48V50.4401H1004.04V-10.9999Z"/>
</mask>
<path d="M1065.48 50.4401V51.0801H1066.12V50.4401H1065.48ZM1065.48 -10.9999H1064.84V50.4401H1065.48H1066.12V-10.9999H1065.48ZM1065.48 50.4401V49.8001H1004.04V50.4401V51.0801H1065.48V50.4401Z" fill="#314F95" fill-opacity="0.2" mask="url(#path-35-inside-17_290_5914)"/>
<mask id="path-37-inside-18_290_5914" fill="white">
<path d="M1065.48 -10.9998H1126.92V50.4402H1065.48V-10.9998Z"/>
</mask>
<path d="M1126.92 50.4402V51.0802H1127.56V50.4402H1126.92ZM1126.92 -10.9998H1126.28V50.4402H1126.92H1127.56V-10.9998H1126.92ZM1126.92 50.4402V49.8002H1065.48V50.4402V51.0802H1126.92V50.4402Z" fill="#314F95" fill-opacity="0.2" mask="url(#path-37-inside-18_290_5914)"/>
<mask id="path-39-inside-19_290_5914" fill="white">
<path d="M1126.92 -10.9999H1188.36V50.4401H1126.92V-10.9999Z"/>
</mask>
<path d="M1188.36 50.4401V51.0801H1189V50.4401H1188.36ZM1188.36 -10.9999H1187.72V50.4401H1188.36H1189V-10.9999H1188.36ZM1188.36 50.4401V49.8001H1126.92V50.4401V51.0801H1188.36V50.4401Z" fill="#314F95" fill-opacity="0.2" mask="url(#path-39-inside-19_290_5914)"/>
<mask id="path-41-inside-20_290_5914" fill="white">
<path d="M1188.36 -10.9999H1249.8V50.4401H1188.36V-10.9999Z"/>
</mask>
<path d="M1249.8 50.4401V51.0801H1250.44V50.4401H1249.8ZM1249.8 -10.9999H1249.16V50.4401H1249.8H1250.44V-10.9999H1249.8ZM1249.8 50.4401V49.8001H1188.36V50.4401V51.0801H1249.8V50.4401Z" fill="#314F95" fill-opacity="0.2" mask="url(#path-41-inside-20_290_5914)"/>
<mask id="path-43-inside-21_290_5914" fill="white">
<path d="M21.0005 50.4401H82.4405V111.88H21.0005V50.4401Z"/>
</mask>
<path d="M82.4405 111.88V112.52H83.0805V111.88H82.4405ZM82.4405 50.4401H81.8005V111.88H82.4405H83.0805V50.4401H82.4405ZM82.4405 111.88V111.24H21.0005V111.88V112.52H82.4405V111.88Z" fill="#314F95" fill-opacity="0.2" mask="url(#path-43-inside-21_290_5914)"/>
<mask id="path-45-inside-22_290_5914" fill="white">
<path d="M82.4404 50.4401H143.88V111.88H82.4404V50.4401Z"/>
</mask>
<path d="M143.88 111.88V112.52H144.52V111.88H143.88ZM143.88 50.4401H143.24V111.88H143.88H144.52V50.4401H143.88ZM143.88 111.88V111.24H82.4404V111.88V112.52H143.88V111.88Z" fill="#314F95" fill-opacity="0.2" mask="url(#path-45-inside-22_290_5914)"/>
<mask id="path-47-inside-23_290_5914" fill="white">
<path d="M143.881 50.4401H205.321V111.88H143.881V50.4401Z"/>
</mask>
<path d="M205.321 111.88V112.52H205.961V111.88H205.321ZM205.321 50.4401H204.681V111.88H205.321H205.961V50.4401H205.321ZM205.321 111.88V111.24H143.881V111.88V112.52H205.321V111.88Z" fill="#314F95" fill-opacity="0.2" mask="url(#path-47-inside-23_290_5914)"/>
<mask id="path-49-inside-24_290_5914" fill="white">
<path d="M205.321 50.4401H266.761V111.88H205.321V50.4401Z"/>
</mask>
<path d="M266.761 111.88V112.52H267.401V111.88H266.761ZM266.761 50.4401H266.121V111.88H266.761H267.401V50.4401H266.761ZM266.761 111.88V111.24H205.321V111.88V112.52H266.761V111.88Z" fill="#314F95" fill-opacity="0.2" mask="url(#path-49-inside-24_290_5914)"/>
<mask id="path-51-inside-25_290_5914" fill="white">
<path d="M266.76 50.4401H328.201V111.88H266.76V50.4401Z"/>
</mask>
<path d="M328.201 111.88V112.52H328.84V111.88H328.201ZM328.201 50.4401H327.561V111.88H328.201H328.84V50.4401H328.201ZM328.201 111.88V111.24H266.76V111.88V112.52H328.201V111.88Z" fill="#314F95" fill-opacity="0.2" mask="url(#path-51-inside-25_290_5914)"/>
<mask id="path-53-inside-26_290_5914" fill="white">
<path d="M328.2 50.4401H389.64V111.88H328.2V50.4401Z"/>
</mask>
<path d="M328.2 50.4401H389.64V111.88H328.2V50.4401Z" fill="#E8F0FE"/>
<path d="M389.64 111.88V112.52H390.28V111.88H389.64ZM389.64 50.4401H389V111.88H389.64H390.28V50.4401H389.64ZM389.64 111.88V111.24H328.2V111.88V112.52H389.64V111.88Z" fill="#314F95" fill-opacity="0.2" mask="url(#path-53-inside-26_290_5914)"/>
<mask id="path-55-inside-27_290_5914" fill="white">
<path d="M389.641 50.4401H451.081V111.88H389.641V50.4401Z"/>
</mask>
<path d="M451.081 111.88V112.52H451.721V111.88H451.081ZM451.081 50.4401H450.441V111.88H451.081H451.721V50.4401H451.081ZM451.081 111.88V111.24H389.641V111.88V112.52H451.081V111.88Z" fill="#314F95" fill-opacity="0.2" mask="url(#path-55-inside-27_290_5914)"/>
<mask id="path-57-inside-28_290_5914" fill="white">
<path d="M451.081 50.4401H512.521V111.88H451.081V50.4401Z"/>
</mask>
<path d="M512.521 111.88V112.52H513.161V111.88H512.521ZM512.521 50.4401H511.881V111.88H512.521H513.161V50.4401H512.521ZM512.521 111.88V111.24H451.081V111.88V112.52H512.521V111.88Z" fill="#314F95" fill-opacity="0.2" mask="url(#path-57-inside-28_290_5914)"/>
<mask id="path-59-inside-29_290_5914" fill="white">
<path d="M512.521 50.4401H573.961V111.88H512.521V50.4401Z"/>
</mask>
<path d="M573.961 111.88V112.52H574.601V111.88H573.961ZM573.961 50.4401H573.321V111.88H573.961H574.601V50.4401H573.961ZM573.961 111.88V111.24H512.521V111.88V112.52H573.961V111.88Z" fill="#314F95" fill-opacity="0.2" mask="url(#path-59-inside-29_290_5914)"/>
<mask id="path-61-inside-30_290_5914" fill="white">
<path d="M573.96 50.4401H635.4V111.88H573.96V50.4401Z"/>
</mask>
<path d="M635.4 111.88V112.52H636.04V111.88H635.4ZM635.4 50.4401H634.76V111.88H635.4H636.04V50.4401H635.4ZM635.4 111.88V111.24H573.96V111.88V112.52H635.4V111.88Z" fill="#314F95" fill-opacity="0.2" mask="url(#path-61-inside-30_290_5914)"/>
<mask id="path-63-inside-31_290_5914" fill="white">
<path d="M635.4 50.4401H696.84V111.88H635.4V50.4401Z"/>
</mask>
<path d="M696.84 111.88V112.52H697.48V111.88H696.84ZM696.84 50.4401H696.2V111.88H696.84H697.48V50.4401H696.84ZM696.84 111.88V111.24H635.4V111.88V112.52H696.84V111.88Z" fill="#314F95" fill-opacity="0.2" mask="url(#path-63-inside-31_290_5914)"/>
<mask id="path-65-inside-32_290_5914" fill="white">
<path d="M696.841 50.4401H758.281V111.88H696.841V50.4401Z"/>
</mask>
<path d="M758.281 111.88V112.52H758.921V111.88H758.281ZM758.281 50.4401H757.641V111.88H758.281H758.921V50.4401H758.281ZM758.281 111.88V111.24H696.841V111.88V112.52H758.281V111.88Z" fill="#314F95" fill-opacity="0.2" mask="url(#path-65-inside-32_290_5914)"/>
<mask id="path-67-inside-33_290_5914" fill="white">
<path d="M758.281 50.4401H819.721V111.88H758.281V50.4401Z"/>
</mask>
<path d="M819.721 111.88V112.52H820.361V111.88H819.721ZM819.721 50.4401H819.081V111.88H819.721H820.361V50.4401H819.721ZM819.721 111.88V111.24H758.281V111.88V112.52H819.721V111.88Z" fill="#314F95" fill-opacity="0.2" mask="url(#path-67-inside-33_290_5914)"/>
<mask id="path-69-inside-34_290_5914" fill="white">
<path d="M819.72 50.4401H881.16V111.88H819.72V50.4401Z"/>
</mask>
<path d="M881.16 111.88V112.52H881.8V111.88H881.16ZM881.16 50.4401H880.52V111.88H881.16H881.8V50.4401H881.16ZM881.16 111.88V111.24H819.72V111.88V112.52H881.16V111.88Z" fill="#314F95" fill-opacity="0.2" mask="url(#path-69-inside-34_290_5914)"/>
<mask id="path-71-inside-35_290_5914" fill="white">
<path d="M881.161 50.4401H942.601V111.88H881.161V50.4401Z"/>
</mask>
<path d="M881.161 50.4401H942.601V111.88H881.161V50.4401Z" fill="#E8F0FE"/>
<path d="M942.601 111.88V112.52H943.241V111.88H942.601ZM942.601 50.4401H941.961V111.88H942.601H943.241V50.4401H942.601ZM942.601 111.88V111.24H881.161V111.88V112.52H942.601V111.88Z" fill="#314F95" fill-opacity="0.2" mask="url(#path-71-inside-35_290_5914)"/>
<mask id="path-73-inside-36_290_5914" fill="white">
<path d="M942.601 50.4401H1004.04V111.88H942.601V50.4401Z"/>
</mask>
<path d="M1004.04 111.88V112.52H1004.68V111.88H1004.04ZM1004.04 50.4401H1003.4V111.88H1004.04H1004.68V50.4401H1004.04ZM1004.04 111.88V111.24H942.601V111.88V112.52H1004.04V111.88Z" fill="#314F95" fill-opacity="0.2" mask="url(#path-73-inside-36_290_5914)"/>
<mask id="path-75-inside-37_290_5914" fill="white">
<path d="M1004.04 50.4401H1065.48V111.88H1004.04V50.4401Z"/>
</mask>
<path d="M1065.48 111.88V112.52H1066.12V111.88H1065.48ZM1065.48 50.4401H1064.84V111.88H1065.48H1066.12V50.4401H1065.48ZM1065.48 111.88V111.24H1004.04V111.88V112.52H1065.48V111.88Z" fill="#314F95" fill-opacity="0.2" mask="url(#path-75-inside-37_290_5914)"/>
<mask id="path-77-inside-38_290_5914" fill="white">
<path d="M1065.48 50.4401H1126.92V111.88H1065.48V50.4401Z"/>
</mask>
<path d="M1126.92 111.88V112.52H1127.56V111.88H1126.92ZM1126.92 50.4401H1126.28V111.88H1126.92H1127.56V50.4401H1126.92ZM1126.92 111.88V111.24H1065.48V111.88V112.52H1126.92V111.88Z" fill="#314F95" fill-opacity="0.2" mask="url(#path-77-inside-38_290_5914)"/>
<mask id="path-79-inside-39_290_5914" fill="white">
<path d="M1126.92 50.4401H1188.36V111.88H1126.92V50.4401Z"/>
</mask>
<path d="M1188.36 111.88V112.52H1189V111.88H1188.36ZM1188.36 50.4401H1187.72V111.88H1188.36H1189V50.4401H1188.36ZM1188.36 111.88V111.24H1126.92V111.88V112.52H1188.36V111.88Z" fill="#314F95" fill-opacity="0.2" mask="url(#path-79-inside-39_290_5914)"/>
<mask id="path-81-inside-40_290_5914" fill="white">
<path d="M1188.36 50.4401H1249.8V111.88H1188.36V50.4401Z"/>
</mask>
<path d="M1249.8 111.88V112.52H1250.44V111.88H1249.8ZM1249.8 50.4401H1249.16V111.88H1249.8H1250.44V50.4401H1249.8ZM1249.8 111.88V111.24H1188.36V111.88V112.52H1249.8V111.88Z" fill="#314F95" fill-opacity="0.2" mask="url(#path-81-inside-40_290_5914)"/>
<mask id="path-83-inside-41_290_5914" fill="white">
<path d="M21.0005 111.88H82.4405V173.32H21.0005V111.88Z"/>
</mask>
<path d="M82.4405 173.32V173.96H83.0805V173.32H82.4405ZM82.4405 111.88H81.8005V173.32H82.4405H83.0805V111.88H82.4405ZM82.4405 173.32V172.68H21.0005V173.32V173.96H82.4405V173.32Z" fill="#314F95" fill-opacity="0.2" mask="url(#path-83-inside-41_290_5914)"/>
<mask id="path-85-inside-42_290_5914" fill="white">
<path d="M82.4404 111.88H143.88V173.32H82.4404V111.88Z"/>
</mask>
<path d="M143.88 173.32V173.96H144.52V173.32H143.88ZM143.88 111.88H143.24V173.32H143.88H144.52V111.88H143.88ZM143.88 173.32V172.68H82.4404V173.32V173.96H143.88V173.32Z" fill="#314F95" fill-opacity="0.2" mask="url(#path-85-inside-42_290_5914)"/>
<mask id="path-87-inside-43_290_5914" fill="white">
<path d="M143.881 111.88H205.321V173.32H143.881V111.88Z"/>
</mask>
<path d="M205.321 173.32V173.96H205.961V173.32H205.321ZM205.321 111.88H204.681V173.32H205.321H205.961V111.88H205.321ZM205.321 173.32V172.68H143.881V173.32V173.96H205.321V173.32Z" fill="#314F95" fill-opacity="0.2" mask="url(#path-87-inside-43_290_5914)"/>
<mask id="path-89-inside-44_290_5914" fill="white">
<path d="M205.321 111.88H266.761V173.32H205.321V111.88Z"/>
</mask>
<path d="M266.761 173.32V173.96H267.401V173.32H266.761ZM266.761 111.88H266.121V173.32H266.761H267.401V111.88H266.761ZM266.761 173.32V172.68H205.321V173.32V173.96H266.761V173.32Z" fill="#314F95" fill-opacity="0.2" mask="url(#path-89-inside-44_290_5914)"/>
<mask id="path-91-inside-45_290_5914" fill="white">
<path d="M266.76 111.88H328.201V173.32H266.76V111.88Z"/>
</mask>
<path d="M328.201 173.32V173.96H328.84V173.32H328.201ZM328.201 111.88H327.561V173.32H328.201H328.84V111.88H328.201ZM328.201 173.32V172.68H266.76V173.32V173.96H328.201V173.32Z" fill="#314F95" fill-opacity="0.2" mask="url(#path-91-inside-45_290_5914)"/>
<mask id="path-93-inside-46_290_5914" fill="white">
<path d="M328.2 111.88H389.64V173.32H328.2V111.88Z"/>
</mask>
<path d="M389.64 173.32V173.96H390.28V173.32H389.64ZM389.64 111.88H389V173.32H389.64H390.28V111.88H389.64ZM389.64 173.32V172.68H328.2V173.32V173.96H389.64V173.32Z" fill="#314F95" fill-opacity="0.2" mask="url(#path-93-inside-46_290_5914)"/>
<mask id="path-95-inside-47_290_5914" fill="white">
<path d="M389.641 111.88H451.081V173.32H389.641V111.88Z"/>
</mask>
<path d="M451.081 173.32V173.96H451.721V173.32H451.081ZM451.081 111.88H450.441V173.32H451.081H451.721V111.88H451.081ZM451.081 173.32V172.68H389.641V173.32V173.96H451.081V173.32Z" fill="#314F95" fill-opacity="0.2" mask="url(#path-95-inside-47_290_5914)"/>
<mask id="path-97-inside-48_290_5914" fill="white">
<path d="M451.081 111.88H512.521V173.32H451.081V111.88Z"/>
</mask>
<path d="M451.081 111.88H512.521V173.32H451.081V111.88Z" fill="#E8F0FE"/>
<path d="M512.521 173.32V173.96H513.161V173.32H512.521ZM512.521 111.88H511.881V173.32H512.521H513.161V111.88H512.521ZM512.521 173.32V172.68H451.081V173.32V173.96H512.521V173.32Z" fill="#314F95" fill-opacity="0.2" mask="url(#path-97-inside-48_290_5914)"/>
<mask id="path-99-inside-49_290_5914" fill="white">
<path d="M512.521 111.88H573.961V173.32H512.521V111.88Z"/>
</mask>
<path d="M573.961 173.32V173.96H574.601V173.32H573.961ZM573.961 111.88H573.321V173.32H573.961H574.601V111.88H573.961ZM573.961 173.32V172.68H512.521V173.32V173.96H573.961V173.32Z" fill="#314F95" fill-opacity="0.2" mask="url(#path-99-inside-49_290_5914)"/>
<mask id="path-101-inside-50_290_5914" fill="white">
<path d="M573.96 111.88H635.4V173.32H573.96V111.88Z"/>
</mask>
<path d="M635.4 173.32V173.96H636.04V173.32H635.4ZM635.4 111.88H634.76V173.32H635.4H636.04V111.88H635.4ZM635.4 173.32V172.68H573.96V173.32V173.96H635.4V173.32Z" fill="#314F95" fill-opacity="0.2" mask="url(#path-101-inside-50_290_5914)"/>
<mask id="path-103-inside-51_290_5914" fill="white">
<path d="M635.4 111.88H696.84V173.32H635.4V111.88Z"/>
</mask>
<path d="M696.84 173.32V173.96H697.48V173.32H696.84ZM696.84 111.88H696.2V173.32H696.84H697.48V111.88H696.84ZM696.84 173.32V172.68H635.4V173.32V173.96H696.84V173.32Z" fill="#314F95" fill-opacity="0.2" mask="url(#path-103-inside-51_290_5914)"/>
<mask id="path-105-inside-52_290_5914" fill="white">
<path d="M696.841 111.88H758.281V173.32H696.841V111.88Z"/>
</mask>
<path d="M696.841 111.88H758.281V173.32H696.841V111.88Z" fill="#E8F0FE"/>
<path d="M758.281 173.32V173.96H758.921V173.32H758.281ZM758.281 111.88H757.641V173.32H758.281H758.921V111.88H758.281ZM758.281 173.32V172.68H696.841V173.32V173.96H758.281V173.32Z" fill="#314F95" fill-opacity="0.2" mask="url(#path-105-inside-52_290_5914)"/>
<mask id="path-107-inside-53_290_5914" fill="white">
<path d="M758.281 111.88H819.721V173.32H758.281V111.88Z"/>
</mask>
<path d="M819.721 173.32V173.96H820.361V173.32H819.721ZM819.721 111.88H819.081V173.32H819.721H820.361V111.88H819.721ZM819.721 173.32V172.68H758.281V173.32V173.96H819.721V173.32Z" fill="#314F95" fill-opacity="0.2" mask="url(#path-107-inside-53_290_5914)"/>
<mask id="path-109-inside-54_290_5914" fill="white">
<path d="M819.72 111.88H881.16V173.32H819.72V111.88Z"/>
</mask>
<path d="M881.16 173.32V173.96H881.8V173.32H881.16ZM881.16 111.88H880.52V173.32H881.16H881.8V111.88H881.16ZM881.16 173.32V172.68H819.72V173.32V173.96H881.16V173.32Z" fill="#314F95" fill-opacity="0.2" mask="url(#path-109-inside-54_290_5914)"/>
<mask id="path-111-inside-55_290_5914" fill="white">
<path d="M881.161 111.88H942.601V173.32H881.161V111.88Z"/>
</mask>
<path d="M942.601 173.32V173.96H943.241V173.32H942.601ZM942.601 111.88H941.961V173.32H942.601H943.241V111.88H942.601ZM942.601 173.32V172.68H881.161V173.32V173.96H942.601V173.32Z" fill="#314F95" fill-opacity="0.2" mask="url(#path-111-inside-55_290_5914)"/>
<mask id="path-113-inside-56_290_5914" fill="white">
<path d="M942.601 111.88H1004.04V173.32H942.601V111.88Z"/>
</mask>
<path d="M1004.04 173.32V173.96H1004.68V173.32H1004.04ZM1004.04 111.88H1003.4V173.32H1004.04H1004.68V111.88H1004.04ZM1004.04 173.32V172.68H942.601V173.32V173.96H1004.04V173.32Z" fill="#314F95" fill-opacity="0.2" mask="url(#path-113-inside-56_290_5914)"/>
<mask id="path-115-inside-57_290_5914" fill="white">
<path d="M1004.04 111.88H1065.48V173.32H1004.04V111.88Z"/>
</mask>
<path d="M1065.48 173.32V173.96H1066.12V173.32H1065.48ZM1065.48 111.88H1064.84V173.32H1065.48H1066.12V111.88H1065.48ZM1065.48 173.32V172.68H1004.04V173.32V173.96H1065.48V173.32Z" fill="#314F95" fill-opacity="0.2" mask="url(#path-115-inside-57_290_5914)"/>
<mask id="path-117-inside-58_290_5914" fill="white">
<path d="M1065.48 111.88H1126.92V173.32H1065.48V111.88Z"/>
</mask>
<path d="M1126.92 173.32V173.96H1127.56V173.32H1126.92ZM1126.92 111.88H1126.28V173.32H1126.92H1127.56V111.88H1126.92ZM1126.92 173.32V172.68H1065.48V173.32V173.96H1126.92V173.32Z" fill="#314F95" fill-opacity="0.2" mask="url(#path-117-inside-58_290_5914)"/>
<mask id="path-119-inside-59_290_5914" fill="white">
<path d="M1126.92 111.88H1188.36V173.32H1126.92V111.88Z"/>
</mask>
<path d="M1188.36 173.32V173.96H1189V173.32H1188.36ZM1188.36 111.88H1187.72V173.32H1188.36H1189V111.88H1188.36ZM1188.36 173.32V172.68H1126.92V173.32V173.96H1188.36V173.32Z" fill="#314F95" fill-opacity="0.2" mask="url(#path-119-inside-59_290_5914)"/>
<mask id="path-121-inside-60_290_5914" fill="white">
<path d="M1188.36 111.88H1249.8V173.32H1188.36V111.88Z"/>
</mask>
<path d="M1249.8 173.32V173.96H1250.44V173.32H1249.8ZM1249.8 111.88H1249.16V173.32H1249.8H1250.44V111.88H1249.8ZM1249.8 173.32V172.68H1188.36V173.32V173.96H1249.8V173.32Z" fill="#314F95" fill-opacity="0.2" mask="url(#path-121-inside-60_290_5914)"/>
<mask id="path-123-inside-61_290_5914" fill="white">
<path d="M21.0005 173.32H82.4405V234.76H21.0005V173.32Z"/>
</mask>
<path d="M82.4405 234.76V235.4H83.0805V234.76H82.4405ZM82.4405 173.32H81.8005V234.76H82.4405H83.0805V173.32H82.4405ZM82.4405 234.76V234.12H21.0005V234.76V235.4H82.4405V234.76Z" fill="#314F95" fill-opacity="0.2" mask="url(#path-123-inside-61_290_5914)"/>
<mask id="path-125-inside-62_290_5914" fill="white">
<path d="M82.4404 173.32H143.88V234.76H82.4404V173.32Z"/>
</mask>
<path d="M143.88 234.76V235.4H144.52V234.76H143.88ZM143.88 173.32H143.24V234.76H143.88H144.52V173.32H143.88ZM143.88 234.76V234.12H82.4404V234.76V235.4H143.88V234.76Z" fill="#314F95" fill-opacity="0.2" mask="url(#path-125-inside-62_290_5914)"/>
<mask id="path-127-inside-63_290_5914" fill="white">
<path d="M143.881 173.32H205.321V234.76H143.881V173.32Z"/>
</mask>
<path d="M143.881 173.32H205.321V234.76H143.881V173.32Z" fill="#E8F0FE"/>
<path d="M205.321 234.76V235.4H205.961V234.76H205.321ZM205.321 173.32H204.681V234.76H205.321H205.961V173.32H205.321ZM205.321 234.76V234.12H143.881V234.76V235.4H205.321V234.76Z" fill="#314F95" fill-opacity="0.2" mask="url(#path-127-inside-63_290_5914)"/>
<mask id="path-129-inside-64_290_5914" fill="white">
<path d="M205.321 173.32H266.761V234.76H205.321V173.32Z"/>
</mask>
<path d="M266.761 234.76V235.4H267.401V234.76H266.761ZM266.761 173.32H266.121V234.76H266.761H267.401V173.32H266.761ZM266.761 234.76V234.12H205.321V234.76V235.4H266.761V234.76Z" fill="#314F95" fill-opacity="0.2" mask="url(#path-129-inside-64_290_5914)"/>
<mask id="path-131-inside-65_290_5914" fill="white">
<path d="M266.76 173.32H328.201V234.76H266.76V173.32Z"/>
</mask>
<path d="M328.201 234.76V235.4H328.84V234.76H328.201ZM328.201 173.32H327.561V234.76H328.201H328.84V173.32H328.201ZM328.201 234.76V234.12H266.76V234.76V235.4H328.201V234.76Z" fill="#314F95" fill-opacity="0.2" mask="url(#path-131-inside-65_290_5914)"/>
<mask id="path-133-inside-66_290_5914" fill="white">
<path d="M328.2 173.32H389.64V234.76H328.2V173.32Z"/>
</mask>
<path d="M389.64 234.76V235.4H390.28V234.76H389.64ZM389.64 173.32H389V234.76H389.64H390.28V173.32H389.64ZM389.64 234.76V234.12H328.2V234.76V235.4H389.64V234.76Z" fill="#314F95" fill-opacity="0.2" mask="url(#path-133-inside-66_290_5914)"/>
<mask id="path-135-inside-67_290_5914" fill="white">
<path d="M389.641 173.32H451.081V234.76H389.641V173.32Z"/>
</mask>
<path d="M451.081 234.76V235.4H451.721V234.76H451.081ZM451.081 173.32H450.441V234.76H451.081H451.721V173.32H451.081ZM451.081 234.76V234.12H389.641V234.76V235.4H451.081V234.76Z" fill="#314F95" fill-opacity="0.2" mask="url(#path-135-inside-67_290_5914)"/>
<mask id="path-137-inside-68_290_5914" fill="white">
<path d="M451.081 173.32H512.521V234.76H451.081V173.32Z"/>
</mask>
<path d="M512.521 234.76V235.4H513.161V234.76H512.521ZM512.521 173.32H511.881V234.76H512.521H513.161V173.32H512.521ZM512.521 234.76V234.12H451.081V234.76V235.4H512.521V234.76Z" fill="#314F95" fill-opacity="0.2" mask="url(#path-137-inside-68_290_5914)"/>
<mask id="path-139-inside-69_290_5914" fill="white">
<path d="M512.521 173.32H573.961V234.76H512.521V173.32Z"/>
</mask>
<path d="M573.961 234.76V235.4H574.601V234.76H573.961ZM573.961 173.32H573.321V234.76H573.961H574.601V173.32H573.961ZM573.961 234.76V234.12H512.521V234.76V235.4H573.961V234.76Z" fill="#314F95" fill-opacity="0.2" mask="url(#path-139-inside-69_290_5914)"/>
<mask id="path-141-inside-70_290_5914" fill="white">
<path d="M573.96 173.32H635.4V234.76H573.96V173.32Z"/>
</mask>
<path d="M635.4 234.76V235.4H636.04V234.76H635.4ZM635.4 173.32H634.76V234.76H635.4H636.04V173.32H635.4ZM635.4 234.76V234.12H573.96V234.76V235.4H635.4V234.76Z" fill="#314F95" fill-opacity="0.2" mask="url(#path-141-inside-70_290_5914)"/>
<mask id="path-143-inside-71_290_5914" fill="white">
<path d="M635.4 173.32H696.84V234.76H635.4V173.32Z"/>
</mask>
<path d="M696.84 234.76V235.4H697.48V234.76H696.84ZM696.84 173.32H696.2V234.76H696.84H697.48V173.32H696.84ZM696.84 234.76V234.12H635.4V234.76V235.4H696.84V234.76Z" fill="#314F95" fill-opacity="0.2" mask="url(#path-143-inside-71_290_5914)"/>
<mask id="path-145-inside-72_290_5914" fill="white">
<path d="M696.841 173.32H758.281V234.76H696.841V173.32Z"/>
</mask>
<path d="M758.281 234.76V235.4H758.921V234.76H758.281ZM758.281 173.32H757.641V234.76H758.281H758.921V173.32H758.281ZM758.281 234.76V234.12H696.841V234.76V235.4H758.281V234.76Z" fill="#314F95" fill-opacity="0.2" mask="url(#path-145-inside-72_290_5914)"/>
<mask id="path-147-inside-73_290_5914" fill="white">
<path d="M758.281 173.32H819.721V234.76H758.281V173.32Z"/>
</mask>
<path d="M819.721 234.76V235.4H820.361V234.76H819.721ZM819.721 173.32H819.081V234.76H819.721H820.361V173.32H819.721ZM819.721 234.76V234.12H758.281V234.76V235.4H819.721V234.76Z" fill="#314F95" fill-opacity="0.2" mask="url(#path-147-inside-73_290_5914)"/>
<mask id="path-149-inside-74_290_5914" fill="white">
<path d="M819.72 173.32H881.16V234.76H819.72V173.32Z"/>
</mask>
<path d="M881.16 234.76V235.4H881.8V234.76H881.16ZM881.16 173.32H880.52V234.76H881.16H881.8V173.32H881.16ZM881.16 234.76V234.12H819.72V234.76V235.4H881.16V234.76Z" fill="#314F95" fill-opacity="0.2" mask="url(#path-149-inside-74_290_5914)"/>
<mask id="path-151-inside-75_290_5914" fill="white">
<path d="M881.161 173.32H942.601V234.76H881.161V173.32Z"/>
</mask>
<path d="M881.161 173.32H942.601V234.76H881.161V173.32Z" fill="#E8F0FE"/>
<path d="M942.601 234.76V235.4H943.241V234.76H942.601ZM942.601 173.32H941.961V234.76H942.601H943.241V173.32H942.601ZM942.601 234.76V234.12H881.161V234.76V235.4H942.601V234.76Z" fill="#314F95" fill-opacity="0.2" mask="url(#path-151-inside-75_290_5914)"/>
<mask id="path-153-inside-76_290_5914" fill="white">
<path d="M942.601 173.32H1004.04V234.76H942.601V173.32Z"/>
</mask>
<path d="M1004.04 234.76V235.4H1004.68V234.76H1004.04ZM1004.04 173.32H1003.4V234.76H1004.04H1004.68V173.32H1004.04ZM1004.04 234.76V234.12H942.601V234.76V235.4H1004.04V234.76Z" fill="#314F95" fill-opacity="0.2" mask="url(#path-153-inside-76_290_5914)"/>
<mask id="path-155-inside-77_290_5914" fill="white">
<path d="M1004.04 173.32H1065.48V234.76H1004.04V173.32Z"/>
</mask>
<path d="M1065.48 234.76V235.4H1066.12V234.76H1065.48ZM1065.48 173.32H1064.84V234.76H1065.48H1066.12V173.32H1065.48ZM1065.48 234.76V234.12H1004.04V234.76V235.4H1065.48V234.76Z" fill="#314F95" fill-opacity="0.2" mask="url(#path-155-inside-77_290_5914)"/>
<mask id="path-157-inside-78_290_5914" fill="white">
<path d="M1065.48 173.32H1126.92V234.76H1065.48V173.32Z"/>
</mask>
<path d="M1126.92 234.76V235.4H1127.56V234.76H1126.92ZM1126.92 173.32H1126.28V234.76H1126.92H1127.56V173.32H1126.92ZM1126.92 234.76V234.12H1065.48V234.76V235.4H1126.92V234.76Z" fill="#314F95" fill-opacity="0.2" mask="url(#path-157-inside-78_290_5914)"/>
<mask id="path-159-inside-79_290_5914" fill="white">
<path d="M1126.92 173.32H1188.36V234.76H1126.92V173.32Z"/>
</mask>
<path d="M1188.36 234.76V235.4H1189V234.76H1188.36ZM1188.36 173.32H1187.72V234.76H1188.36H1189V173.32H1188.36ZM1188.36 234.76V234.12H1126.92V234.76V235.4H1188.36V234.76Z" fill="#314F95" fill-opacity="0.2" mask="url(#path-159-inside-79_290_5914)"/>
<mask id="path-161-inside-80_290_5914" fill="white">
<path d="M1188.36 173.32H1249.8V234.76H1188.36V173.32Z"/>
</mask>
<path d="M1249.8 234.76V235.4H1250.44V234.76H1249.8ZM1249.8 173.32H1249.16V234.76H1249.8H1250.44V173.32H1249.8ZM1249.8 234.76V234.12H1188.36V234.76V235.4H1249.8V234.76Z" fill="#314F95" fill-opacity="0.2" mask="url(#path-161-inside-80_290_5914)"/>
<mask id="path-163-inside-81_290_5914" fill="white">
<path d="M21.0005 234.76H82.4405V296.2H21.0005V234.76Z"/>
</mask>
<path d="M82.4405 296.2V296.84H83.0805V296.2H82.4405ZM82.4405 234.76H81.8005V296.2H82.4405H83.0805V234.76H82.4405ZM82.4405 296.2V295.56H21.0005V296.2V296.84H82.4405V296.2Z" fill="#314F95" fill-opacity="0.2" mask="url(#path-163-inside-81_290_5914)"/>
<mask id="path-165-inside-82_290_5914" fill="white">
<path d="M82.4404 234.76H143.88V296.2H82.4404V234.76Z"/>
</mask>
<path d="M143.88 296.2V296.84H144.52V296.2H143.88ZM143.88 234.76H143.24V296.2H143.88H144.52V234.76H143.88ZM143.88 296.2V295.56H82.4404V296.2V296.84H143.88V296.2Z" fill="#314F95" fill-opacity="0.2" mask="url(#path-165-inside-82_290_5914)"/>
<mask id="path-167-inside-83_290_5914" fill="white">
<path d="M143.881 234.76H205.321V296.2H143.881V234.76Z"/>
</mask>
<path d="M205.321 296.2V296.84H205.961V296.2H205.321ZM205.321 234.76H204.681V296.2H205.321H205.961V234.76H205.321ZM205.321 296.2V295.56H143.881V296.2V296.84H205.321V296.2Z" fill="#314F95" fill-opacity="0.2" mask="url(#path-167-inside-83_290_5914)"/>
<mask id="path-169-inside-84_290_5914" fill="white">
<path d="M205.321 234.76H266.761V296.2H205.321V234.76Z"/>
</mask>
<path d="M266.761 296.2V296.84H267.401V296.2H266.761ZM266.761 234.76H266.121V296.2H266.761H267.401V234.76H266.761ZM266.761 296.2V295.56H205.321V296.2V296.84H266.761V296.2Z" fill="#314F95" fill-opacity="0.2" mask="url(#path-169-inside-84_290_5914)"/>
<mask id="path-171-inside-85_290_5914" fill="white">
<path d="M266.76 234.76H328.201V296.2H266.76V234.76Z"/>
</mask>
<path d="M328.201 296.2V296.84H328.84V296.2H328.201ZM328.201 234.76H327.561V296.2H328.201H328.84V234.76H328.201ZM328.201 296.2V295.56H266.76V296.2V296.84H328.201V296.2Z" fill="#314F95" fill-opacity="0.2" mask="url(#path-171-inside-85_290_5914)"/>
<mask id="path-173-inside-86_290_5914" fill="white">
<path d="M328.2 234.76H389.64V296.2H328.2V234.76Z"/>
</mask>
<path d="M389.64 296.2V296.84H390.28V296.2H389.64ZM389.64 234.76H389V296.2H389.64H390.28V234.76H389.64ZM389.64 296.2V295.56H328.2V296.2V296.84H389.64V296.2Z" fill="#314F95" fill-opacity="0.2" mask="url(#path-173-inside-86_290_5914)"/>
<mask id="path-175-inside-87_290_5914" fill="white">
<path d="M389.641 234.76H451.081V296.2H389.641V234.76Z"/>
</mask>
<path d="M451.081 296.2V296.84H451.721V296.2H451.081ZM451.081 234.76H450.441V296.2H451.081H451.721V234.76H451.081ZM451.081 296.2V295.56H389.641V296.2V296.84H451.081V296.2Z" fill="#314F95" fill-opacity="0.2" mask="url(#path-175-inside-87_290_5914)"/>
<mask id="path-177-inside-88_290_5914" fill="white">
<path d="M451.081 234.76H512.521V296.2H451.081V234.76Z"/>
</mask>
<path d="M512.521 296.2V296.84H513.161V296.2H512.521ZM512.521 234.76H511.881V296.2H512.521H513.161V234.76H512.521ZM512.521 296.2V295.56H451.081V296.2V296.84H512.521V296.2Z" fill="#314F95" fill-opacity="0.2" mask="url(#path-177-inside-88_290_5914)"/>
<mask id="path-179-inside-89_290_5914" fill="white">
<path d="M512.521 234.76H573.961V296.2H512.521V234.76Z"/>
</mask>
<path d="M512.521 234.76H573.961V296.2H512.521V234.76Z" fill="#E8F0FE"/>
<path d="M573.961 296.2V296.84H574.601V296.2H573.961ZM573.961 234.76H573.321V296.2H573.961H574.601V234.76H573.961ZM573.961 296.2V295.56H512.521V296.2V296.84H573.961V296.2Z" fill="#314F95" fill-opacity="0.2" mask="url(#path-179-inside-89_290_5914)"/>
<mask id="path-181-inside-90_290_5914" fill="white">
<path d="M573.96 234.76H635.4V296.2H573.96V234.76Z"/>
</mask>
<path d="M635.4 296.2V296.84H636.04V296.2H635.4ZM635.4 234.76H634.76V296.2H635.4H636.04V234.76H635.4ZM635.4 296.2V295.56H573.96V296.2V296.84H635.4V296.2Z" fill="#314F95" fill-opacity="0.2" mask="url(#path-181-inside-90_290_5914)"/>
<mask id="path-183-inside-91_290_5914" fill="white">
<path d="M635.4 234.76H696.84V296.2H635.4V234.76Z"/>
</mask>
<path d="M696.84 296.2V296.84H697.48V296.2H696.84ZM696.84 234.76H696.2V296.2H696.84H697.48V234.76H696.84ZM696.84 296.2V295.56H635.4V296.2V296.84H696.84V296.2Z" fill="#314F95" fill-opacity="0.2" mask="url(#path-183-inside-91_290_5914)"/>
<mask id="path-185-inside-92_290_5914" fill="white">
<path d="M696.841 234.76H758.281V296.2H696.841V234.76Z"/>
</mask>
<path d="M758.281 296.2V296.84H758.921V296.2H758.281ZM758.281 234.76H757.641V296.2H758.281H758.921V234.76H758.281ZM758.281 296.2V295.56H696.841V296.2V296.84H758.281V296.2Z" fill="#314F95" fill-opacity="0.2" mask="url(#path-185-inside-92_290_5914)"/>
<mask id="path-187-inside-93_290_5914" fill="white">
<path d="M758.281 234.76H819.721V296.2H758.281V234.76Z"/>
</mask>
<path d="M819.721 296.2V296.84H820.361V296.2H819.721ZM819.721 234.76H819.081V296.2H819.721H820.361V234.76H819.721ZM819.721 296.2V295.56H758.281V296.2V296.84H819.721V296.2Z" fill="#314F95" fill-opacity="0.2" mask="url(#path-187-inside-93_290_5914)"/>
<mask id="path-189-inside-94_290_5914" fill="white">
<path d="M819.72 234.76H881.16V296.2H819.72V234.76Z"/>
</mask>
<path d="M881.16 296.2V296.84H881.8V296.2H881.16ZM881.16 234.76H880.52V296.2H881.16H881.8V234.76H881.16ZM881.16 296.2V295.56H819.72V296.2V296.84H881.16V296.2Z" fill="#314F95" fill-opacity="0.2" mask="url(#path-189-inside-94_290_5914)"/>
<mask id="path-191-inside-95_290_5914" fill="white">
<path d="M881.161 234.76H942.601V296.2H881.161V234.76Z"/>
</mask>
<path d="M942.601 296.2V296.84H943.241V296.2H942.601ZM942.601 234.76H941.961V296.2H942.601H943.241V234.76H942.601ZM942.601 296.2V295.56H881.161V296.2V296.84H942.601V296.2Z" fill="#314F95" fill-opacity="0.2" mask="url(#path-191-inside-95_290_5914)"/>
<mask id="path-193-inside-96_290_5914" fill="white">
<path d="M942.601 234.76H1004.04V296.2H942.601V234.76Z"/>
</mask>
<path d="M1004.04 296.2V296.84H1004.68V296.2H1004.04ZM1004.04 234.76H1003.4V296.2H1004.04H1004.68V234.76H1004.04ZM1004.04 296.2V295.56H942.601V296.2V296.84H1004.04V296.2Z" fill="#314F95" fill-opacity="0.2" mask="url(#path-193-inside-96_290_5914)"/>
<mask id="path-195-inside-97_290_5914" fill="white">
<path d="M1004.04 234.76H1065.48V296.2H1004.04V234.76Z"/>
</mask>
<path d="M1065.48 296.2V296.84H1066.12V296.2H1065.48ZM1065.48 234.76H1064.84V296.2H1065.48H1066.12V234.76H1065.48ZM1065.48 296.2V295.56H1004.04V296.2V296.84H1065.48V296.2Z" fill="#314F95" fill-opacity="0.2" mask="url(#path-195-inside-97_290_5914)"/>
<mask id="path-197-inside-98_290_5914" fill="white">
<path d="M1065.48 234.76H1126.92V296.2H1065.48V234.76Z"/>
</mask>
<path d="M1126.92 296.2V296.84H1127.56V296.2H1126.92ZM1126.92 234.76H1126.28V296.2H1126.92H1127.56V234.76H1126.92ZM1126.92 296.2V295.56H1065.48V296.2V296.84H1126.92V296.2Z" fill="#314F95" fill-opacity="0.2" mask="url(#path-197-inside-98_290_5914)"/>
<mask id="path-199-inside-99_290_5914" fill="white">
<path d="M1126.92 234.76H1188.36V296.2H1126.92V234.76Z"/>
</mask>
<path d="M1126.92 234.76H1188.36V296.2H1126.92V234.76Z" fill="#E8F0FE"/>
<path d="M1188.36 296.2V296.84H1189V296.2H1188.36ZM1188.36 234.76H1187.72V296.2H1188.36H1189V234.76H1188.36ZM1188.36 296.2V295.56H1126.92V296.2V296.84H1188.36V296.2Z" fill="#314F95" fill-opacity="0.2" mask="url(#path-199-inside-99_290_5914)"/>
<mask id="path-201-inside-100_290_5914" fill="white">
<path d="M1188.36 234.76H1249.8V296.2H1188.36V234.76Z"/>
</mask>
<path d="M1249.8 296.2V296.84H1250.44V296.2H1249.8ZM1249.8 234.76H1249.16V296.2H1249.8H1250.44V234.76H1249.8ZM1249.8 296.2V295.56H1188.36V296.2V296.84H1249.8V296.2Z" fill="#314F95" fill-opacity="0.2" mask="url(#path-201-inside-100_290_5914)"/>
<mask id="path-203-inside-101_290_5914" fill="white">
<path d="M21.0005 296.2H82.4405V357.64H21.0005V296.2Z"/>
</mask>
<path d="M82.4405 357.64V358.28H83.0805V357.64H82.4405ZM82.4405 296.2H81.8005V357.64H82.4405H83.0805V296.2H82.4405ZM82.4405 357.64V357H21.0005V357.64V358.28H82.4405V357.64Z" fill="#314F95" fill-opacity="0.2" mask="url(#path-203-inside-101_290_5914)"/>
<mask id="path-205-inside-102_290_5914" fill="white">
<path d="M82.4404 296.2H143.88V357.64H82.4404V296.2Z"/>
</mask>
<path d="M143.88 357.64V358.28H144.52V357.64H143.88ZM143.88 296.2H143.24V357.64H143.88H144.52V296.2H143.88ZM143.88 357.64V357H82.4404V357.64V358.28H143.88V357.64Z" fill="#314F95" fill-opacity="0.2" mask="url(#path-205-inside-102_290_5914)"/>
<mask id="path-207-inside-103_290_5914" fill="white">
<path d="M143.881 296.2H205.321V357.64H143.881V296.2Z"/>
</mask>
<path d="M205.321 357.64V358.28H205.961V357.64H205.321ZM205.321 296.2H204.681V357.64H205.321H205.961V296.2H205.321ZM205.321 357.64V357H143.881V357.64V358.28H205.321V357.64Z" fill="#314F95" fill-opacity="0.2" mask="url(#path-207-inside-103_290_5914)"/>
<mask id="path-209-inside-104_290_5914" fill="white">
<path d="M205.321 296.2H266.761V357.64H205.321V296.2Z"/>
</mask>
<path d="M266.761 357.64V358.28H267.401V357.64H266.761ZM266.761 296.2H266.121V357.64H266.761H267.401V296.2H266.761ZM266.761 357.64V357H205.321V357.64V358.28H266.761V357.64Z" fill="#314F95" fill-opacity="0.2" mask="url(#path-209-inside-104_290_5914)"/>
<mask id="path-211-inside-105_290_5914" fill="white">
<path d="M266.76 296.2H328.201V357.64H266.76V296.2Z"/>
</mask>
<path d="M328.201 357.64V358.28H328.84V357.64H328.201ZM328.201 296.2H327.561V357.64H328.201H328.84V296.2H328.201ZM328.201 357.64V357H266.76V357.64V358.28H328.201V357.64Z" fill="#314F95" fill-opacity="0.2" mask="url(#path-211-inside-105_290_5914)"/>
<mask id="path-213-inside-106_290_5914" fill="white">
<path d="M328.2 296.2H389.64V357.64H328.2V296.2Z"/>
</mask>
<path d="M328.2 296.2H389.64V357.64H328.2V296.2Z" fill="#E8F0FE"/>
<path d="M389.64 357.64V358.28H390.28V357.64H389.64ZM389.64 296.2H389V357.64H389.64H390.28V296.2H389.64ZM389.64 357.64V357H328.2V357.64V358.28H389.64V357.64Z" fill="#314F95" fill-opacity="0.2" mask="url(#path-213-inside-106_290_5914)"/>
<mask id="path-215-inside-107_290_5914" fill="white">
<path d="M389.641 296.2H451.081V357.64H389.641V296.2Z"/>
</mask>
<path d="M451.081 357.64V358.28H451.721V357.64H451.081ZM451.081 296.2H450.441V357.64H451.081H451.721V296.2H451.081ZM451.081 357.64V357H389.641V357.64V358.28H451.081V357.64Z" fill="#314F95" fill-opacity="0.2" mask="url(#path-215-inside-107_290_5914)"/>
<mask id="path-217-inside-108_290_5914" fill="white">
<path d="M451.081 296.2H512.521V357.64H451.081V296.2Z"/>
</mask>
<path d="M512.521 357.64V358.28H513.161V357.64H512.521ZM512.521 296.2H511.881V357.64H512.521H513.161V296.2H512.521ZM512.521 357.64V357H451.081V357.64V358.28H512.521V357.64Z" fill="#314F95" fill-opacity="0.2" mask="url(#path-217-inside-108_290_5914)"/>
<mask id="path-219-inside-109_290_5914" fill="white">
<path d="M512.521 296.2H573.961V357.64H512.521V296.2Z"/>
</mask>
<path d="M573.961 357.64V358.28H574.601V357.64H573.961ZM573.961 296.2H573.321V357.64H573.961H574.601V296.2H573.961ZM573.961 357.64V357H512.521V357.64V358.28H573.961V357.64Z" fill="#314F95" fill-opacity="0.2" mask="url(#path-219-inside-109_290_5914)"/>
<mask id="path-221-inside-110_290_5914" fill="white">
<path d="M573.96 296.2H635.4V357.64H573.96V296.2Z"/>
</mask>
<path d="M635.4 357.64V358.28H636.04V357.64H635.4ZM635.4 296.2H634.76V357.64H635.4H636.04V296.2H635.4ZM635.4 357.64V357H573.96V357.64V358.28H635.4V357.64Z" fill="#314F95" fill-opacity="0.2" mask="url(#path-221-inside-110_290_5914)"/>
<mask id="path-223-inside-111_290_5914" fill="white">
<path d="M635.4 296.2H696.84V357.64H635.4V296.2Z"/>
</mask>
<path d="M696.84 357.64V358.28H697.48V357.64H696.84ZM696.84 296.2H696.2V357.64H696.84H697.48V296.2H696.84ZM696.84 357.64V357H635.4V357.64V358.28H696.84V357.64Z" fill="#314F95" fill-opacity="0.2" mask="url(#path-223-inside-111_290_5914)"/>
<mask id="path-225-inside-112_290_5914" fill="white">
<path d="M696.841 296.2H758.281V357.64H696.841V296.2Z"/>
</mask>
<path d="M696.841 296.2H758.281V357.64H696.841V296.2Z" fill="#E8F0FE"/>
<path d="M758.281 357.64V358.28H758.921V357.64H758.281ZM758.281 296.2H757.641V357.64H758.281H758.921V296.2H758.281ZM758.281 357.64V357H696.841V357.64V358.28H758.281V357.64Z" fill="#314F95" fill-opacity="0.2" mask="url(#path-225-inside-112_290_5914)"/>
<mask id="path-227-inside-113_290_5914" fill="white">
<path d="M758.281 296.2H819.721V357.64H758.281V296.2Z"/>
</mask>
<path d="M819.721 357.64V358.28H820.361V357.64H819.721ZM819.721 296.2H819.081V357.64H819.721H820.361V296.2H819.721ZM819.721 357.64V357H758.281V357.64V358.28H819.721V357.64Z" fill="#314F95" fill-opacity="0.2" mask="url(#path-227-inside-113_290_5914)"/>
<mask id="path-229-inside-114_290_5914" fill="white">
<path d="M819.72 296.2H881.16V357.64H819.72V296.2Z"/>
</mask>
<path d="M881.16 357.64V358.28H881.8V357.64H881.16ZM881.16 296.2H880.52V357.64H881.16H881.8V296.2H881.16ZM881.16 357.64V357H819.72V357.64V358.28H881.16V357.64Z" fill="#314F95" fill-opacity="0.2" mask="url(#path-229-inside-114_290_5914)"/>
<mask id="path-231-inside-115_290_5914" fill="white">
<path d="M881.161 296.2H942.601V357.64H881.161V296.2Z"/>
</mask>
<path d="M942.601 357.64V358.28H943.241V357.64H942.601ZM942.601 296.2H941.961V357.64H942.601H943.241V296.2H942.601ZM942.601 357.64V357H881.161V357.64V358.28H942.601V357.64Z" fill="#314F95" fill-opacity="0.2" mask="url(#path-231-inside-115_290_5914)"/>
<mask id="path-233-inside-116_290_5914" fill="white">
<path d="M942.601 296.2H1004.04V357.64H942.601V296.2Z"/>
</mask>
<path d="M1004.04 357.64V358.28H1004.68V357.64H1004.04ZM1004.04 296.2H1003.4V357.64H1004.04H1004.68V296.2H1004.04ZM1004.04 357.64V357H942.601V357.64V358.28H1004.04V357.64Z" fill="#314F95" fill-opacity="0.2" mask="url(#path-233-inside-116_290_5914)"/>
<mask id="path-235-inside-117_290_5914" fill="white">
<path d="M1004.04 296.2H1065.48V357.64H1004.04V296.2Z"/>
</mask>
<path d="M1065.48 357.64V358.28H1066.12V357.64H1065.48ZM1065.48 296.2H1064.84V357.64H1065.48H1066.12V296.2H1065.48ZM1065.48 357.64V357H1004.04V357.64V358.28H1065.48V357.64Z" fill="#314F95" fill-opacity="0.2" mask="url(#path-235-inside-117_290_5914)"/>
<mask id="path-237-inside-118_290_5914" fill="white">
<path d="M1065.48 296.2H1126.92V357.64H1065.48V296.2Z"/>
</mask>
<path d="M1126.92 357.64V358.28H1127.56V357.64H1126.92ZM1126.92 296.2H1126.28V357.64H1126.92H1127.56V296.2H1126.92ZM1126.92 357.64V357H1065.48V357.64V358.28H1126.92V357.64Z" fill="#314F95" fill-opacity="0.2" mask="url(#path-237-inside-118_290_5914)"/>
<mask id="path-239-inside-119_290_5914" fill="white">
<path d="M1126.92 296.2H1188.36V357.64H1126.92V296.2Z"/>
</mask>
<path d="M1188.36 357.64V358.28H1189V357.64H1188.36ZM1188.36 296.2H1187.72V357.64H1188.36H1189V296.2H1188.36ZM1188.36 357.64V357H1126.92V357.64V358.28H1188.36V357.64Z" fill="#314F95" fill-opacity="0.2" mask="url(#path-239-inside-119_290_5914)"/>
<mask id="path-241-inside-120_290_5914" fill="white">
<path d="M1188.36 296.2H1249.8V357.64H1188.36V296.2Z"/>
</mask>
<path d="M1249.8 357.64V358.28H1250.44V357.64H1249.8ZM1249.8 296.2H1249.16V357.64H1249.8H1250.44V296.2H1249.8ZM1249.8 357.64V357H1188.36V357.64V358.28H1249.8V357.64Z" fill="#314F95" fill-opacity="0.2" mask="url(#path-241-inside-120_290_5914)"/>
</g>
<rect x="21.3205" y="-10.6799" width="1228.16" height="368" stroke="#314F95" stroke-opacity="0.2" stroke-width="0.64"/>
</g>
</g>
<defs>
<radialGradient id="paint0_radial_290_5914" cx="0" cy="0" r="1" gradientUnits="userSpaceOnUse" gradientTransform="translate(460.8 -9.13239e-05) rotate(90) scale(766.08 481.016)">
<stop/>
<stop offset="0.953125" stop-opacity="0"/>
</radialGradient>
<clipPath id="clip0_290_5914">
<rect width="1292" height="369" fill="white" transform="translate(-12 -11)"/>
</clipPath>
<clipPath id="clip1_290_5914">
<rect x="21.0005" y="-10.9999" width="1228.8" height="368.64" fill="white"/>
</clipPath>
</defs>
</svg>
