<svg width="125" height="125" viewBox="0 0 125 125" fill="none" xmlns="http://www.w3.org/2000/svg">
<circle cx="62.5" cy="62.5" r="62.5" fill="white"/>
<path d="M18.9604 77H13.3071V49.9877H30.9971V54.6489H18.9604V61.8933H29.9488V66.3673H18.9604V77ZM35.4111 77V56.9326H40.8772V77H35.4111ZM38.1442 54.7237C36.4969 54.7237 35.2239 53.4695 35.2239 51.8971C35.2239 50.3059 36.4969 49.0704 38.1442 49.0704C39.7915 49.0704 41.0644 50.3059 41.0644 51.8971C41.0644 53.4695 39.7915 54.7237 38.1442 54.7237ZM45.9652 77V56.9326H51.2441V60.5081H51.3564C52.4235 58.0184 54.5388 56.5583 57.6275 56.5583C62.0827 56.5583 64.5912 59.3662 64.5912 64.0648V77H59.1251V65.2067C59.1251 62.5859 57.8896 61.0884 55.4373 61.0884C52.985 61.0884 51.4313 62.8855 51.4313 65.4875V77H45.9652ZM69.3796 77V73.3122L83.1011 54.7986V54.6489H69.6979V49.9877H89.8588V53.6567L76.1935 72.1891V72.3201H90.2332V77H69.3796ZM103.951 77.4305C97.8858 77.4305 94.0108 73.5369 94.0108 66.9476C94.0108 60.4519 97.9419 56.5021 103.951 56.5021C109.96 56.5021 113.891 60.4332 113.891 66.9476C113.891 73.5556 110.016 77.4305 103.951 77.4305ZM103.951 73.2561C106.628 73.2561 108.331 70.991 108.331 66.9663C108.331 62.9791 106.609 60.6766 103.951 60.6766C101.293 60.6766 99.5518 62.9791 99.5518 66.9663C99.5518 70.991 101.255 73.2561 103.951 73.2561Z" fill="#2C3E87"/>
</svg>
