<svg width="101" height="29" viewBox="0 0 101 29" fill="none" xmlns="http://www.w3.org/2000/svg">
<path d="M5.65472 28H0.00141576V0.987689H17.6914V5.64886H5.65472V12.8933H16.6431V17.3673H5.65472V28ZM22.1055 28V7.93264H27.5716V28H22.1055ZM24.8385 5.72374C23.1912 5.72374 21.9183 4.46953 21.9183 2.89708C21.9183 1.30592 23.1912 0.0704311 24.8385 0.0704311C26.4858 0.0704311 27.7588 1.30592 27.7588 2.89708C27.7588 4.46953 26.4858 5.72374 24.8385 5.72374ZM32.6595 28V7.93264H37.9385V11.5081H38.0508C39.1178 9.01838 41.2331 7.55825 44.3218 7.55825C48.7771 7.55825 51.2855 10.3662 51.2855 15.0648V28H45.8194V16.2067C45.8194 13.5859 44.5839 12.0884 42.1316 12.0884C39.6794 12.0884 38.1257 13.8855 38.1257 16.4875V28H32.6595ZM56.074 28V24.3122L69.7954 5.79861V5.64886H56.3922V0.987689H76.5531V4.65672L62.8879 23.1891V23.3201H76.9275V28H56.074ZM90.6452 28.4305C84.5801 28.4305 80.7051 24.5369 80.7051 17.9476C80.7051 11.4519 84.6362 7.50209 90.6452 7.50209C96.6542 7.50209 100.585 11.4332 100.585 17.9476C100.585 24.5556 96.7104 28.4305 90.6452 28.4305ZM90.6452 24.2561C93.3221 24.2561 95.0256 21.991 95.0256 17.9663C95.0256 13.9791 93.3034 11.6766 90.6452 11.6766C87.987 11.6766 86.2461 13.9791 86.2461 17.9663C86.2461 21.991 87.9496 24.2561 90.6452 24.2561Z" fill="#2C3E87"/>
</svg>
