<svg width="219" height="66" viewBox="0 0 219 66" fill="none" xmlns="http://www.w3.org/2000/svg">
<rect x="0.910342" y="1.4101" width="217.08" height="63.18" rx="7.29" fill="black"/>
<rect x="0.910342" y="1.4101" width="217.08" height="63.18" rx="7.29" stroke="#A6A6A6" stroke-width="1.62"/>
<path d="M110.481 35.8368C106.671 35.8368 103.565 38.735 103.565 42.7267C103.565 46.694 106.671 49.6165 110.481 49.6165C114.293 49.6165 117.398 46.694 117.398 42.7267C117.397 38.735 114.291 35.8368 110.481 35.8368ZM110.481 46.9046C108.393 46.9046 106.593 45.1826 106.593 42.7283C106.593 40.248 108.394 38.5519 110.481 38.5519C112.569 38.5519 114.369 40.248 114.369 42.7283C114.369 45.181 112.569 46.9046 110.481 46.9046ZM95.3922 35.8368C91.582 35.8368 88.4764 38.735 88.4764 42.7267C88.4764 46.694 91.582 49.6165 95.3922 49.6165C99.2041 49.6165 102.31 46.694 102.31 42.7267C102.31 38.735 99.2041 35.8368 95.3922 35.8368ZM95.3922 46.9046C93.304 46.9046 91.5042 45.1826 91.5042 42.7283C91.5042 40.248 93.3057 38.5519 95.3922 38.5519C97.4804 38.5519 99.2802 40.248 99.2802 42.7283C99.2818 45.181 97.4804 46.9046 95.3922 46.9046ZM77.4459 37.9525V40.875H84.441C84.232 42.5193 83.6845 43.7197 82.8486 44.554C81.8312 45.5714 80.2387 46.694 77.4459 46.694C73.1399 46.694 69.7735 43.2224 69.7735 38.9164C69.7735 34.6104 73.1399 31.1388 77.4459 31.1388C79.7689 31.1388 81.4651 32.0525 82.7173 33.227L84.7796 31.1647C83.03 29.4945 80.7085 28.2163 77.4459 28.2163C71.5474 28.2163 66.5886 33.018 66.5886 38.9164C66.5886 44.8148 71.5474 49.6165 77.4459 49.6165C80.6292 49.6165 83.0316 48.5716 84.9092 46.6146C86.8402 44.6836 87.4413 41.9685 87.4413 39.7766C87.4413 39.0995 87.3894 38.4725 87.2841 37.9509H77.4459V37.9525ZM150.845 40.2221C150.271 38.6831 148.522 35.8368 144.946 35.8368C141.397 35.8368 138.447 38.6297 138.447 42.7267C138.447 46.5887 141.371 49.6165 145.285 49.6165C148.442 49.6165 150.27 47.6855 151.028 46.5628L148.679 44.9963C147.896 46.1448 146.826 46.9014 145.285 46.9014C143.746 46.9014 142.649 46.1967 141.945 44.8132L151.157 41.003L150.845 40.2221ZM141.449 42.5193C141.371 39.856 143.511 38.5001 145.052 38.5001C146.252 38.5001 147.269 39.1011 147.61 39.9613L141.449 42.5193ZM133.96 49.2002H136.986V28.9485H133.96V49.2002ZM128.999 37.3774H128.895C128.217 36.5674 126.911 35.8368 125.268 35.8368C121.823 35.8368 118.665 38.8646 118.665 42.7542C118.665 46.6163 121.823 49.6181 125.268 49.6181C126.913 49.6181 128.217 48.8875 128.895 48.0532H128.999V49.0446C128.999 51.6804 127.59 53.0898 125.32 53.0898C123.467 53.0898 122.318 51.7598 121.848 50.6371L119.213 51.7338C119.969 53.5596 121.978 55.8049 125.32 55.8049C128.87 55.8049 131.871 53.7167 131.871 48.6267V36.2564H129.001V37.3774H128.999ZM125.529 46.9046C123.441 46.9046 121.693 45.155 121.693 42.7542C121.693 40.3258 123.441 38.5519 125.529 38.5519C127.59 38.5519 129.208 40.3258 129.208 42.7542C129.208 45.155 127.59 46.9046 125.529 46.9046ZM165.026 28.9485H157.783V49.2002H160.805V41.5278H165.025C168.375 41.5278 171.67 39.1027 171.67 35.239C171.67 31.3753 168.376 28.9485 165.026 28.9485ZM165.104 38.709H160.805V31.7673H165.104C167.364 31.7673 168.647 33.6384 168.647 35.239C168.647 36.8072 167.364 38.709 165.104 38.709ZM183.786 35.8011C181.597 35.8011 179.331 36.7651 178.393 38.9018L181.076 40.0212C181.649 38.9018 182.718 38.5357 183.838 38.5357C185.401 38.5357 186.99 39.4737 187.016 41.1407V41.3496C186.469 41.037 185.296 40.5688 183.864 40.5688C180.972 40.5688 178.027 42.158 178.027 45.1275C178.027 47.8377 180.398 49.5825 183.055 49.5825C185.087 49.5825 186.208 48.6704 186.911 47.6012H187.015V49.1645H189.934V41.3999C189.935 37.8067 187.249 35.8011 183.786 35.8011ZM183.42 46.8998C182.432 46.8998 181.05 46.4041 181.05 45.1793C181.05 43.616 182.77 43.0166 184.256 43.0166C185.582 43.0166 186.209 43.3034 187.016 43.6938C186.781 45.5714 185.166 46.8998 183.42 46.8998ZM200.564 36.2434L197.099 45.0238H196.995L193.399 36.2434H190.143L195.536 48.5149L192.461 55.3416H195.614L203.926 36.2434H200.564ZM173.339 49.2002H176.36V28.9485H173.339V49.2002Z" fill="white"/>
<path d="M76.9165 17.194C76.9165 18.5515 76.5148 19.6321 75.7096 20.4388C74.7959 21.3979 73.6036 21.8774 72.1391 21.8774C70.7362 21.8774 69.5423 21.3914 68.5622 20.4194C67.5805 19.4458 67.0896 18.2405 67.0896 16.8019C67.0896 15.3617 67.5805 14.1565 68.5622 13.1845C69.5423 12.2108 70.7362 11.7248 72.1391 11.7248C72.8357 11.7248 73.5016 11.8609 74.1334 12.1315C74.7668 12.4036 75.2738 12.7649 75.6529 13.2169L74.7992 14.0722C74.156 13.3027 73.2699 12.9188 72.1375 12.9188C71.1137 12.9188 70.2292 13.2784 69.4823 13.9977C68.7355 14.717 68.3629 15.6517 68.3629 16.8003C68.3629 17.9489 68.7355 18.8836 69.4823 19.6029C70.2292 20.3222 71.1137 20.6818 72.1375 20.6818C73.2229 20.6818 74.1285 20.3206 74.8526 19.5964C75.3224 19.125 75.5946 18.4689 75.6675 17.6281H72.1375V16.4601H76.8469C76.8955 16.7144 76.9165 16.9591 76.9165 17.194Z" fill="white"/>
<path d="M84.3849 13.1343H79.959V16.2156H83.9507V17.3836H79.959V20.4648H84.3849V21.6604H78.71V11.9404H84.3849V13.1343Z" fill="white"/>
<path d="M89.6513 21.6604H88.4023V13.1343H85.6872V11.9404H92.3664V13.1343H89.6513V21.6604Z" fill="white"/>
<path d="M97.1988 21.6604V11.9404H98.4478V21.6604H97.1988Z" fill="white"/>
<path d="M103.987 21.6604H102.738V13.1343H100.023V11.9404H106.702V13.1343H103.987V21.6604Z" fill="white"/>
<path d="M119.346 20.4049C118.39 21.3866 117.202 21.8775 115.782 21.8775C114.361 21.8775 113.174 21.3866 112.219 20.4049C111.264 19.4232 110.787 18.2211 110.787 16.8004C110.787 15.3796 111.264 14.1776 112.219 13.1959C113.174 12.2142 114.361 11.7217 115.782 11.7217C117.194 11.7217 118.38 12.2158 119.339 13.2024C120.298 14.1889 120.778 15.3877 120.778 16.8004C120.778 18.2211 120.3 19.4232 119.346 20.4049ZM113.141 19.59C113.86 20.319 114.74 20.6819 115.782 20.6819C116.823 20.6819 117.705 20.3174 118.422 19.59C119.142 18.861 119.503 17.9311 119.503 16.8004C119.503 15.6696 119.142 14.7397 118.422 14.0107C117.705 13.2817 116.823 12.9189 115.782 12.9189C114.74 12.9189 113.86 13.2834 113.141 14.0107C112.423 14.7397 112.062 15.6696 112.062 16.8004C112.062 17.9311 112.423 18.861 113.141 19.59Z" fill="white"/>
<path d="M122.531 21.6604V11.9404H124.05L128.774 19.5009H128.828L128.774 17.6282V11.9404H130.023V21.6604H128.719L123.776 13.7321H123.723L123.776 15.6048V21.6604H122.531Z" fill="white"/>
<path d="M76.9165 17.194C76.9165 18.5515 76.5148 19.6321 75.7096 20.4388C74.7959 21.3979 73.6036 21.8774 72.1391 21.8774C70.7362 21.8774 69.5423 21.3914 68.5622 20.4194C67.5805 19.4458 67.0896 18.2405 67.0896 16.8019C67.0896 15.3617 67.5805 14.1565 68.5622 13.1845C69.5423 12.2108 70.7362 11.7248 72.1391 11.7248C72.8357 11.7248 73.5016 11.8609 74.1334 12.1315C74.7668 12.4036 75.2738 12.7649 75.6529 13.2169L74.7992 14.0722C74.156 13.3027 73.2699 12.9188 72.1375 12.9188C71.1137 12.9188 70.2292 13.2784 69.4823 13.9977C68.7355 14.717 68.3629 15.6517 68.3629 16.8003C68.3629 17.9489 68.7355 18.8836 69.4823 19.6029C70.2292 20.3222 71.1137 20.6818 72.1375 20.6818C73.2229 20.6818 74.1285 20.3206 74.8526 19.5964C75.3224 19.125 75.5946 18.4689 75.6675 17.6281H72.1375V16.4601H76.8469C76.8955 16.7144 76.9165 16.9591 76.9165 17.194Z" stroke="white" stroke-width="0.324" stroke-miterlimit="10"/>
<path d="M84.3849 13.1343H79.959V16.2156H83.9507V17.3836H79.959V20.4648H84.3849V21.6604H78.71V11.9404H84.3849V13.1343Z" stroke="white" stroke-width="0.324" stroke-miterlimit="10"/>
<path d="M89.6513 21.6604H88.4023V13.1343H85.6872V11.9404H92.3664V13.1343H89.6513V21.6604Z" stroke="white" stroke-width="0.324" stroke-miterlimit="10"/>
<path d="M97.1988 21.6604V11.9404H98.4478V21.6604H97.1988Z" stroke="white" stroke-width="0.324" stroke-miterlimit="10"/>
<path d="M103.987 21.6604H102.738V13.1343H100.023V11.9404H106.702V13.1343H103.987V21.6604Z" stroke="white" stroke-width="0.324" stroke-miterlimit="10"/>
<path d="M119.346 20.4049C118.39 21.3866 117.202 21.8775 115.782 21.8775C114.361 21.8775 113.174 21.3866 112.219 20.4049C111.264 19.4232 110.787 18.2211 110.787 16.8004C110.787 15.3796 111.264 14.1776 112.219 13.1959C113.174 12.2142 114.361 11.7217 115.782 11.7217C117.194 11.7217 118.38 12.2158 119.339 13.2024C120.298 14.1889 120.778 15.3877 120.778 16.8004C120.778 18.2211 120.3 19.4232 119.346 20.4049ZM113.141 19.59C113.86 20.319 114.74 20.6819 115.782 20.6819C116.823 20.6819 117.705 20.3174 118.422 19.59C119.142 18.861 119.503 17.9311 119.503 16.8004C119.503 15.6696 119.142 14.7397 118.422 14.0107C117.705 13.2817 116.823 12.9189 115.782 12.9189C114.74 12.9189 113.86 13.2834 113.141 14.0107C112.423 14.7397 112.062 15.6696 112.062 16.8004C112.062 17.9311 112.423 18.861 113.141 19.59Z" stroke="white" stroke-width="0.324" stroke-miterlimit="10"/>
<path d="M122.531 21.6604V11.9404H124.05L128.774 19.5009H128.828L128.774 17.6282V11.9404H130.023V21.6604H128.719L123.776 13.7321H123.723L123.776 15.6048V21.6604H122.531Z" stroke="white" stroke-width="0.324" stroke-miterlimit="10"/>
<g filter="url(#filter0_ii_290_6211)">
<path d="M17.0057 12.8121C16.5343 13.3111 16.2556 14.0854 16.2556 15.0882V50.9161C16.2556 51.9205 16.5343 52.6933 17.0057 53.1922L17.1256 53.3089L37.1957 33.2387V33.0022V32.7656L17.1256 12.6938L17.0057 12.8121Z" fill="url(#paint0_linear_290_6211)"/>
<path d="M43.8838 39.9306L37.1948 33.2383V33.0018V32.7653L43.8854 26.0747L44.0361 26.1606L51.9627 30.6642C54.2259 31.9504 54.2259 34.0548 51.9627 35.3427L44.0361 39.8463L43.8838 39.9306Z" fill="url(#paint1_linear_290_6211)"/>
<g filter="url(#filter1_i_290_6211)">
<path d="M44.0367 39.8448L37.1938 33.002L17.0054 53.192C17.7506 53.9826 18.9834 54.0798 20.3717 53.2925L44.0367 39.8448Z" fill="url(#paint2_linear_290_6211)"/>
</g>
<path d="M44.0367 26.1594L20.3717 12.7134C18.9834 11.9244 17.7506 12.0233 17.0054 12.8138L37.1954 33.0039L44.0367 26.1594Z" fill="url(#paint3_linear_290_6211)"/>
</g>
<defs>
<filter id="filter0_ii_290_6211" x="16.2556" y="12.1689" width="37.4045" height="41.6675" filterUnits="userSpaceOnUse" color-interpolation-filters="sRGB">
<feFlood flood-opacity="0" result="BackgroundImageFix"/>
<feBlend mode="normal" in="SourceGraphic" in2="BackgroundImageFix" result="shape"/>
<feColorMatrix in="SourceAlpha" type="matrix" values="0 0 0 0 0 0 0 0 0 0 0 0 0 0 0 0 0 0 127 0" result="hardAlpha"/>
<feOffset dy="-0.243"/>
<feComposite in2="hardAlpha" operator="arithmetic" k2="-1" k3="1"/>
<feColorMatrix type="matrix" values="0 0 0 0 0 0 0 0 0 0 0 0 0 0 0 0 0 0 0.12 0"/>
<feBlend mode="normal" in2="shape" result="effect1_innerShadow_290_6211"/>
<feColorMatrix in="SourceAlpha" type="matrix" values="0 0 0 0 0 0 0 0 0 0 0 0 0 0 0 0 0 0 127 0" result="hardAlpha"/>
<feOffset dy="0.243"/>
<feComposite in2="hardAlpha" operator="arithmetic" k2="-1" k3="1"/>
<feColorMatrix type="matrix" values="0 0 0 0 1 0 0 0 0 1 0 0 0 0 1 0 0 0 0.25 0"/>
<feBlend mode="normal" in2="effect1_innerShadow_290_6211" result="effect2_innerShadow_290_6211"/>
</filter>
<filter id="filter1_i_290_6211" x="17.0054" y="33.002" width="27.0312" height="20.8345" filterUnits="userSpaceOnUse" color-interpolation-filters="sRGB">
<feFlood flood-opacity="0" result="BackgroundImageFix"/>
<feBlend mode="normal" in="SourceGraphic" in2="BackgroundImageFix" result="shape"/>
<feColorMatrix in="SourceAlpha" type="matrix" values="0 0 0 0 0 0 0 0 0 0 0 0 0 0 0 0 0 0 127 0" result="hardAlpha"/>
<feOffset dy="-0.243"/>
<feComposite in2="hardAlpha" operator="arithmetic" k2="-1" k3="1"/>
<feColorMatrix type="matrix" values="0 0 0 0 0 0 0 0 0 0 0 0 0 0 0 0 0 0 0.08 0"/>
<feBlend mode="normal" in2="shape" result="effect1_innerShadow_290_6211"/>
</filter>
<linearGradient id="paint0_linear_290_6211" x1="35.4167" y1="14.7091" x2="8.22981" y2="41.896" gradientUnits="userSpaceOnUse">
<stop stop-color="#00A0FF"/>
<stop offset="0.0066" stop-color="#00A1FF"/>
<stop offset="0.2601" stop-color="#00BEFF"/>
<stop offset="0.5122" stop-color="#00D2FF"/>
<stop offset="0.7604" stop-color="#00DFFF"/>
<stop offset="1" stop-color="#00E3FF"/>
</linearGradient>
<linearGradient id="paint1_linear_290_6211" x1="54.9087" y1="33.0018" x2="15.7114" y2="33.0018" gradientUnits="userSpaceOnUse">
<stop stop-color="#FFE000"/>
<stop offset="0.4087" stop-color="#FFBD00"/>
<stop offset="0.7754" stop-color="#FFA500"/>
<stop offset="1" stop-color="#FF9C00"/>
</linearGradient>
<linearGradient id="paint2_linear_290_6211" x1="40.3206" y1="36.7181" x2="3.45181" y2="73.5868" gradientUnits="userSpaceOnUse">
<stop stop-color="#FF3A44"/>
<stop offset="1" stop-color="#C31162"/>
</linearGradient>
<linearGradient id="paint3_linear_290_6211" x1="11.9208" y1="0.887064" x2="28.3838" y2="17.35" gradientUnits="userSpaceOnUse">
<stop stop-color="#32A071"/>
<stop offset="0.0685" stop-color="#2DA771"/>
<stop offset="0.4762" stop-color="#15CF74"/>
<stop offset="0.8009" stop-color="#06E775"/>
<stop offset="1" stop-color="#00F076"/>
</linearGradient>
</defs>
</svg>
